<svg id="Capa_1" data-name="Capa 1" xmlns="http://www.w3.org/2000/svg" viewBox="0 0 121.22 102.91"><defs><style>.cls-1{fill:#fff;}</style></defs><path class="cls-1" d="M24,64.33a1.68,1.68,0,0,1-.32.87,1.62,1.62,0,0,1-.8.58l-.26-.68a.92.92,0,0,0,.6-.57,1.38,1.38,0,0,0-.06-.93,1.24,1.24,0,0,0-.48-.64.73.73,0,0,0-.67-.06.67.67,0,0,0-.44.47,3.73,3.73,0,0,0-.1.94c0,.42,0,.75,0,1a1.71,1.71,0,0,1-.26.7,1.38,1.38,0,0,1-.7.53,1.4,1.4,0,0,1-.85.07,1.51,1.51,0,0,1-.71-.39,2.08,2.08,0,0,1-.59-1.6,1.44,1.44,0,0,1,.31-.8,1.74,1.74,0,0,1,.76-.55l.26.68a.92.92,0,0,0-.56.51,1.22,1.22,0,0,0,.48,1.36.69.69,0,0,0,.64.05.72.72,0,0,0,.47-.46,4,4,0,0,0,.11-.92v-.16a7.63,7.63,0,0,1,.05-.93,1.76,1.76,0,0,1,.26-.69,1.27,1.27,0,0,1,.65-.49,1.42,1.42,0,0,1,.86-.06,1.57,1.57,0,0,1,.74.42,1.92,1.92,0,0,1,.49.77A2.27,2.27,0,0,1,24,64.33Z"/><path class="cls-1" d="M22.4,60.1a2.76,2.76,0,0,1-.78,1.23,3,3,0,0,1-1.34.69,3,3,0,0,1-1.51,0,2.8,2.8,0,0,1-1.26-.75,2.86,2.86,0,0,1-.72-1.34,2.72,2.72,0,0,1,0-1.17,2.62,2.62,0,0,1,.46-1,2.45,2.45,0,0,1,.86-.74l.18.75a1.72,1.72,0,0,0-.7.87,2,2,0,0,0-.08,1.17,2.18,2.18,0,0,0,.54,1,2,2,0,0,0,.94.55,2.31,2.31,0,0,0,1.14,0,2.38,2.38,0,0,0,1-.52,2,2,0,0,0,.59-.91,2.23,2.23,0,0,0,0-1.15,2.1,2.1,0,0,0-.59-1,1.79,1.79,0,0,0-1-.47L20,56.51a2.59,2.59,0,0,1,2,1,2.73,2.73,0,0,1,.5,1.06A2.7,2.7,0,0,1,22.4,60.1Z"/><path class="cls-1" d="M19.41,54l.1,1,2.14-.2.06.72L16.14,56l-.07-.72L16,54a1.64,1.64,0,0,1,.15-.87,1.75,1.75,0,0,1,1.42-1,1.7,1.7,0,0,1,1.72,1l2.06-2.08.08.88ZM18.84,55l-.12-1.26a.83.83,0,0,0-.18-.47,1.12,1.12,0,0,0-.42-.32,1.08,1.08,0,0,0-.53-.08,1.16,1.16,0,0,0-.51.18,1,1,0,0,0-.34.39,1,1,0,0,0-.1.5l.12,1.25Z"/><path class="cls-1" d="M21.07,49.9a2.82,2.82,0,0,1-1.11,1,2.93,2.93,0,0,1-1.47.31A3,3,0,0,1,17,50.74a2.85,2.85,0,0,1-1-1.07,2.63,2.63,0,0,1-.32-1.44,2.68,2.68,0,0,1,.45-1.41,2.79,2.79,0,0,1,1.1-1,2.89,2.89,0,0,1,1.48-.31,2.93,2.93,0,0,1,1.44.44,2.88,2.88,0,0,1,1,1.07,2.82,2.82,0,0,1,.32,1.44A2.87,2.87,0,0,1,21.07,49.9Zm-.52-2.52a2.11,2.11,0,0,0-.75-.79,2.28,2.28,0,0,0-1.09-.33,2.34,2.34,0,0,0-1.12.22,2.14,2.14,0,0,0-.82.73,2.11,2.11,0,0,0-.34,1,2.2,2.2,0,0,0,.24,1.08,2.08,2.08,0,0,0,.76.8,2.35,2.35,0,0,0,1.09.32,2.2,2.2,0,0,0,1.11-.23,1.91,1.91,0,0,0,.82-.72,2.1,2.1,0,0,0,.1-2.13Z"/><path class="cls-1" d="M21.56,41.85l.69.13-.53,3L16.2,44l.13-.71,4.82.85Z"/><path class="cls-1" d="M22.55,38.28l.68.19-.83,3L17,39.91l.19-.69,4.72,1.31Z"/><path class="cls-1" d="M21.94,33.09l.36-.75.78.37-.36.75Z"/><path class="cls-1" d="M27.85,29a1.67,1.67,0,0,1-.9.22,1.76,1.76,0,0,1-.93-.35l.43-.59a.89.89,0,0,0,.81.18A1.33,1.33,0,0,0,28,27.9a1.3,1.3,0,0,0,.27-.75.76.76,0,0,0-.32-.6.68.68,0,0,0-.63-.11,3.82,3.82,0,0,0-.84.44,8.88,8.88,0,0,1-.86.51,1.75,1.75,0,0,1-.73.18,1.43,1.43,0,0,1-.83-.3,1.34,1.34,0,0,1-.52-.67,1.49,1.49,0,0,1-.07-.81,2.12,2.12,0,0,1,1-1.37,1.51,1.51,0,0,1,.83-.18,1.67,1.67,0,0,1,.88.34l-.43.58A.88.88,0,0,0,25,25a1.23,1.23,0,0,0-.87,1.15.69.69,0,0,0,.31.56.72.72,0,0,0,.64.13,3.29,3.29,0,0,0,.83-.41l.13-.09a7.61,7.61,0,0,1,.81-.46,1.73,1.73,0,0,1,.72-.17,1.33,1.33,0,0,1,.77.27,1.45,1.45,0,0,1,.52.69,1.53,1.53,0,0,1,.06.85,2.13,2.13,0,0,1-.37.83A2.34,2.34,0,0,1,27.85,29Z"/><path class="cls-1" d="M30.5,25.3a2.68,2.68,0,0,1-1.46,0,3.1,3.1,0,0,1-2.13-2,2.8,2.8,0,0,1,.66-2.79,2.71,2.71,0,0,1,2.1-.85,2.49,2.49,0,0,1,1.1.31l-.54.56a1.75,1.75,0,0,0-1.11-.11,1.94,1.94,0,0,0-1,.58,2.18,2.18,0,0,0-.56,1,2,2,0,0,0,.05,1.09,2.43,2.43,0,0,0,1.61,1.53A2.05,2.05,0,0,0,31.26,24a2,2,0,0,0,.53-1,1.75,1.75,0,0,0-.16-1.11l.53-.56a2.52,2.52,0,0,1,.36,1.07,2.59,2.59,0,0,1-.12,1.14,2.73,2.73,0,0,1-.61,1A2.86,2.86,0,0,1,30.5,25.3Z"/><path class="cls-1" d="M34,19.44l-.81.64,1.34,1.68-.57.45-3.49-4.38.57-.45,1-.79a1.64,1.64,0,0,1,.81-.35,1.77,1.77,0,0,1,.88.11,1.72,1.72,0,0,1,.72.54,1.68,1.68,0,0,1,.38,1,1.72,1.72,0,0,1-.25,1l2.86.58-.69.55Zm-1.23.12,1-.79a.89.89,0,0,0,.29-.42,1,1,0,0,0,0-.52,1.14,1.14,0,0,0-.22-.49,1.13,1.13,0,0,0-.43-.32,1,1,0,0,0-.52-.08.87.87,0,0,0-.46.2l-1,.78Z"/><path class="cls-1" d="M38.28,18.6a2.82,2.82,0,0,1-1.42-.38,3,3,0,0,1-1.07-1.06,2.92,2.92,0,0,1-.1-2.88,2.76,2.76,0,0,1,1-1.06,2.68,2.68,0,0,1,1.42-.4,2.9,2.9,0,0,1,2.49,1.44,2.78,2.78,0,0,1,.43,1.44,2.86,2.86,0,0,1-.34,1.44,2.66,2.66,0,0,1-1,1.06A2.7,2.7,0,0,1,38.28,18.6Zm1.81-1.82a2,2,0,0,0,.25-1.06A2.14,2.14,0,0,0,40,14.63a2.22,2.22,0,0,0-.8-.81,2.11,2.11,0,0,0-1.06-.29,2.14,2.14,0,0,0-1.06.31,2,2,0,0,0-.77.79,2.09,2.09,0,0,0-.25,1.07,2.42,2.42,0,0,0,.33,1.09,2.3,2.3,0,0,0,.81.8,2.05,2.05,0,0,0,2.12,0A2,2,0,0,0,40.09,16.78Z"/><path class="cls-1" d="M45.26,14.54l.28.65-2.8,1.23L40.48,11.3l.67-.3,2,4.48Z"/><path class="cls-1" d="M48.79,13.36,49,14l-2.9,1L44.34,9.68,45,9.45l1.55,4.64Z"/><path class="cls-1" d="M52.74,9.92l.82-.13.14.86-.83.13Z"/><path class="cls-1" d="M59.46,12.46a1.7,1.7,0,0,1-.69-.61,1.76,1.76,0,0,1-.25-1h.73a.91.91,0,0,0,.31.76,1.36,1.36,0,0,0,.89.29,1.25,1.25,0,0,0,.77-.22.75.75,0,0,0,.31-.6.7.7,0,0,0-.28-.58,4,4,0,0,0-.84-.44c-.39-.15-.69-.29-.91-.4a1.69,1.69,0,0,1-.57-.5,1.4,1.4,0,0,1-.23-.85A1.42,1.42,0,0,1,59,7.55,1.5,1.5,0,0,1,59.57,7a2.12,2.12,0,0,1,.83-.17,2.15,2.15,0,0,1,.88.21,1.6,1.6,0,0,1,.63.58,1.68,1.68,0,0,1,.22.91h-.72a.93.93,0,0,0-.27-.71,1.16,1.16,0,0,0-.74-.26,1.1,1.1,0,0,0-.7.21.67.67,0,0,0-.28.58.68.68,0,0,0,.26.6,3.41,3.41,0,0,0,.81.44l.15.06a8,8,0,0,1,.85.39,1.71,1.71,0,0,1,.54.5,1.22,1.22,0,0,1,.22.78A1.36,1.36,0,0,1,62,12a1.47,1.47,0,0,1-.66.54,2,2,0,0,1-.89.17A2.24,2.24,0,0,1,59.46,12.46Z"/><path class="cls-1" d="M64,12.48a2.74,2.74,0,0,1-.86-1.18A3,3,0,0,1,63,9.8a2.9,2.9,0,0,1,.57-1.4,2.76,2.76,0,0,1,1.15-.9,2.7,2.7,0,0,1,1.5-.18,2.6,2.6,0,0,1,1.1.4,2.54,2.54,0,0,1,.82.81,2.75,2.75,0,0,1,.38,1.07l-.77-.11a1.72,1.72,0,0,0-.56-1A2,2,0,0,0,66.11,8,2.12,2.12,0,0,0,65,8.16a2,2,0,0,0-.86.68A2.32,2.32,0,0,0,63.7,9.9,2.25,2.25,0,0,0,63.81,11a2,2,0,0,0,.65.88,2.07,2.07,0,0,0,1.05.44,1.91,1.91,0,0,0,1.16-.18,1.75,1.75,0,0,0,.81-.78l.76.11a2.38,2.38,0,0,1-.65.92,2.58,2.58,0,0,1-1,.56,2.55,2.55,0,0,1-1.17.09A2.79,2.79,0,0,1,64,12.48Z"/><path class="cls-1" d="M70.82,11.9l-1-.28-.57,2.07-.7-.19L70,8.1l.7.19L72,8.63a1.66,1.66,0,0,1,1.18,1.22,1.72,1.72,0,0,1,0,.9,1.69,1.69,0,0,1-.58.88,1.62,1.62,0,0,1-1,.38l1.22,2.66L72,14.44ZM70,11l1.22.33a.81.81,0,0,0,.51,0,1,1,0,0,0,.44-.27,1.11,1.11,0,0,0,.27-.47,1.1,1.1,0,0,0,0-.54,1.19,1.19,0,0,0-.24-.46.87.87,0,0,0-.44-.26L70.56,9Z"/><path class="cls-1" d="M74,14.86a2.83,2.83,0,0,1-.54-1.37A2.94,2.94,0,0,1,73.7,12a2.9,2.9,0,0,1,.91-1.21,2.77,2.77,0,0,1,2.81-.39,2.62,2.62,0,0,1,1.16.91,2.91,2.91,0,0,1,.33,2.86,2.85,2.85,0,0,1-.91,1.2,2.82,2.82,0,0,1-1.35.58A2.83,2.83,0,0,1,74,14.86Zm2.54.37a2,2,0,0,0,1-.43,2.28,2.28,0,0,0,.67-.91,2.13,2.13,0,0,0,.17-1.13,2.06,2.06,0,0,0-.39-1,2.12,2.12,0,0,0-.88-.68,2.16,2.16,0,0,0-1.09-.14,2,2,0,0,0-1,.44,2.23,2.23,0,0,0-.68.91,2.31,2.31,0,0,0-.17,1.12,2.07,2.07,0,0,0,.4,1,2,2,0,0,0,.88.68A2,2,0,0,0,76.56,15.23Z"/><path class="cls-1" d="M81.43,18l-.34.61-2.67-1.5,2.76-4.88.63.36L79.4,16.88Z"/><path class="cls-1" d="M84.49,20.14l-.4.58L81.58,19l3.19-4.6.59.41-2.79,4Z"/><path class="cls-1" d="M88.12,19.89l.63.56-.57.64-.63-.55Z"/><path class="cls-1" d="M90.45,26.68a1.69,1.69,0,0,1,0-.92,1.8,1.8,0,0,1,.59-.81l.45.57a.92.92,0,0,0-.39.73,1.33,1.33,0,0,0,.35.86,1.17,1.17,0,0,0,.66.46.72.72,0,0,0,.65-.14.67.67,0,0,0,.27-.58,3.72,3.72,0,0,0-.19-.93,9.67,9.67,0,0,1-.27-1,1.78,1.78,0,0,1,0-.76,1.42,1.42,0,0,1,.51-.72,1.5,1.5,0,0,1,.78-.33,1.6,1.6,0,0,1,.8.16,2,2,0,0,1,.66.54,1.93,1.93,0,0,1,.39.8,1.49,1.49,0,0,1,0,.86,1.73,1.73,0,0,1-.56.75l-.46-.57a.88.88,0,0,0,.38-.66,1.11,1.11,0,0,0-.27-.73,1.09,1.09,0,0,0-.61-.41.71.71,0,0,0-.62.15.73.73,0,0,0-.3.58,3.13,3.13,0,0,0,.18.91l0,.15a8.06,8.06,0,0,1,.23.91,1.64,1.64,0,0,1,0,.73,1.28,1.28,0,0,1-.46.67,1.44,1.44,0,0,1-.8.33,1.65,1.65,0,0,1-.84-.17,2.34,2.34,0,0,1-1.15-1.47Z"/><path class="cls-1" d="M93.31,30.2a2.81,2.81,0,0,1,.37-1.42,3,3,0,0,1,1-1.08,3,3,0,0,1,1.44-.45,2.72,2.72,0,0,1,1.43.31A2.77,2.77,0,0,1,99,30.86a2.59,2.59,0,0,1-.58,1L98,31.17a1.78,1.78,0,0,0,.39-1.05A2,2,0,0,0,98.09,29a2.24,2.24,0,0,0-.83-.79A2,2,0,0,0,96.2,28a2.33,2.33,0,0,0-1.09.35,2.22,2.22,0,0,0-.8.81A1.92,1.92,0,0,0,94,30.17a2.07,2.07,0,0,0,.33,1.1,2,2,0,0,0,.88.78,1.77,1.77,0,0,0,1.11.13l.4.65a2.41,2.41,0,0,1-1.13.08,2.67,2.67,0,0,1-1.07-.42,2.6,2.6,0,0,1-.81-.84A2.88,2.88,0,0,1,93.31,30.2Z"/><path class="cls-1" d="M98.09,35.1l-.42-.94-2,.86-.29-.66,5.12-2.26.3.66.5,1.16a1.64,1.64,0,0,1,.14.87,1.78,1.78,0,0,1-.33.82,1.71,1.71,0,0,1-.71.56,1.62,1.62,0,0,1-1,.11,1.66,1.66,0,0,1-.9-.49l-1.29,2.62-.36-.81Zm.2-1.21L98.8,35a.94.94,0,0,0,.32.39,1.07,1.07,0,0,0,.5.17,1.21,1.21,0,0,0,.53-.09,1.09,1.09,0,0,0,.63-.81,1,1,0,0,0-.07-.5L100.2,33Z"/><path class="cls-1" d="M97.81,39.45a2.81,2.81,0,0,1,.73-1.27,3.07,3.07,0,0,1,1.3-.77,3,3,0,0,1,1.51,0,2.77,2.77,0,0,1,1.3.68,2.93,2.93,0,0,1,.77,1.26,2.76,2.76,0,0,1,0,1.48,2.84,2.84,0,0,1-.73,1.28,3,3,0,0,1-1.3.77,2.94,2.94,0,0,1-1.5,0,2.83,2.83,0,0,1-1.3-.69,2.83,2.83,0,0,1-.8-2.74Zm1.3,2.22a2,2,0,0,0,1,.51,2.17,2.17,0,0,0,1.13,0,2.23,2.23,0,0,0,1-.57,2,2,0,0,0,.54-1,2,2,0,0,0,0-1.1,2,2,0,0,0-.57-1,2,2,0,0,0-1-.51,2.33,2.33,0,0,0-1.14,0,2.25,2.25,0,0,0-1,.57,2.08,2.08,0,0,0-.52,2.06A2.06,2.06,0,0,0,99.11,41.67Z"/><path class="cls-1" d="M100,47.25l-.7.1-.47-3,5.53-.86.12.72-4.84.75Z"/><path class="cls-1" d="M100.17,51l-.71,0-.17-3.06,5.59-.32,0,.73-4.89.27Z"/><path class="cls-1" d="M102.41,55.66l-.09.83-.86-.1.1-.83Z"/><path class="cls-1" d="M98.13,61.44a1.64,1.64,0,0,1,.77-.5,1.68,1.68,0,0,1,1,0l-.2.69a1,1,0,0,0-.83.1,1.3,1.3,0,0,0-.51.77,1.16,1.16,0,0,0,0,.8.71.71,0,0,0,.49.46.68.68,0,0,0,.63-.11,3.59,3.59,0,0,0,.66-.68,8.07,8.07,0,0,1,.64-.77,1.66,1.66,0,0,1,.64-.4,1.3,1.3,0,0,1,.87,0,1.39,1.39,0,0,1,.72.46,1.5,1.5,0,0,1,.32.74,1.91,1.91,0,0,1-.07.85,2,2,0,0,1-.43.78,1.53,1.53,0,0,1-.74.45,1.79,1.79,0,0,1-.94,0l.21-.69a.89.89,0,0,0,.76-.07,1.07,1.07,0,0,0,.45-.64,1.14,1.14,0,0,0,0-.73.77.77,0,0,0-1.13-.34,3.37,3.37,0,0,0-.65.66l-.1.13a8.46,8.46,0,0,1-.61.7,1.72,1.72,0,0,1-.62.39,1.28,1.28,0,0,1-.82,0A1.44,1.44,0,0,1,97.9,64a1.6,1.6,0,0,1-.33-.78,2.19,2.19,0,0,1,.08-.91A2.21,2.21,0,0,1,98.13,61.44Z"/><path class="cls-1" d="M96.83,65.78a2.77,2.77,0,0,1,1.38-.49,2.86,2.86,0,0,1,1.48.28,2.89,2.89,0,0,1,1.18.94,2.79,2.79,0,0,1,.54,1.36,2.85,2.85,0,0,1-.26,1.5,2.73,2.73,0,0,1-1.71,1.48,2.4,2.4,0,0,1-1.13.06l.32-.7A1.84,1.84,0,0,0,99.72,70a2,2,0,0,0,.78-.88,2.17,2.17,0,0,0,.19-1.13,2,2,0,0,0-.39-1,2.46,2.46,0,0,0-2-.92,2.09,2.09,0,0,0-1,.36,2.19,2.19,0,0,0-.72.89,2,2,0,0,0-.16,1.16,1.81,1.81,0,0,0,.51,1l-.32.7a2.41,2.41,0,0,1-.69-.89,2.58,2.58,0,0,1-.25-1.12A2.71,2.71,0,0,1,95.87,67,2.78,2.78,0,0,1,96.83,65.78Z"/><path class="cls-1" d="M95.42,72.46l.55-.87-1.8-1.15.39-.62,4.71,3-.39.61-.68,1.07a1.68,1.68,0,0,1-.65.59,1.75,1.75,0,0,1-1.73-.1,1.76,1.76,0,0,1-.75-1.83l-2.9.37.48-.74ZM96.54,72,95.86,73a.83.83,0,0,0-.15.48,1.14,1.14,0,0,0,.13.51,1.26,1.26,0,0,0,.37.39,1.07,1.07,0,0,0,.51.17,1.12,1.12,0,0,0,.52-.09,1,1,0,0,0,.38-.34l.68-1.06Z"/><path class="cls-1" d="M91.62,74.64a2.78,2.78,0,0,1,1.46-.09,3,3,0,0,1,1.36.66,2.93,2.93,0,0,1,.86,1.24,2.8,2.8,0,0,1,.14,1.46,2.68,2.68,0,0,1-.63,1.34,2.81,2.81,0,0,1-1.22.83,2.93,2.93,0,0,1-1.47.09,3,3,0,0,1-2.22-1.9,3,3,0,0,1-.14-1.47,2.75,2.75,0,0,1,.64-1.33A2.62,2.62,0,0,1,91.62,74.64Zm-1.15,2.3A2,2,0,0,0,90.58,78a2.25,2.25,0,0,0,.65.92,2.13,2.13,0,0,0,1,.51,2,2,0,0,0,1.09-.06,2.09,2.09,0,0,0,.91-.62,2.17,2.17,0,0,0,.48-1,2,2,0,0,0-.11-1.09,2.16,2.16,0,0,0-.66-.93,2.24,2.24,0,0,0-1-.51,2.13,2.13,0,0,0-1.09.07,2,2,0,0,0-.91.62A2.17,2.17,0,0,0,90.47,76.94Z"/><path class="cls-1" d="M86.28,80.68l-.47-.52,2.27-2,3.76,4.16-.54.48L88,79.12Z"/><path class="cls-1" d="M83.31,82.9l-.42-.56,2.46-1.83L88.68,85l-.58.43-2.92-3.93Z"/><path class="cls-1" d="M82.39,86.41l-.73.41-.43-.75.73-.41Z"/><path class="cls-1" d="M77,85.68a1.68,1.68,0,0,1,.88.29,1.73,1.73,0,0,1,.61.78l-.67.28a1,1,0,0,0-.6-.58,1.38,1.38,0,0,0-.92.09,1.24,1.24,0,0,0-.62.51.72.72,0,0,0,0,.67.71.71,0,0,0,.49.42,3.55,3.55,0,0,0,.94.07c.42,0,.76,0,1,0a1.66,1.66,0,0,1,.72.24A1.49,1.49,0,0,1,79,90.71a1.87,1.87,0,0,1-.69.48,2.15,2.15,0,0,1-.89.16,1.61,1.61,0,0,1-.81-.28,1.73,1.73,0,0,1-.56-.75l.67-.28a.87.87,0,0,0,.52.54,1.22,1.22,0,0,0,1.35-.52A.78.78,0,0,0,78.15,89a3.32,3.32,0,0,0-.92-.08h-.16a8.91,8.91,0,0,1-.94,0,1.78,1.78,0,0,1-.69-.24,1.26,1.26,0,0,1-.51-.63,1.3,1.3,0,0,1-.09-.86,1.6,1.6,0,0,1,.39-.75,2,2,0,0,1,.75-.52A2.31,2.31,0,0,1,77,85.68Z"/><path class="cls-1" d="M72.76,87.47a2.8,2.8,0,0,1,1.26.74A3.1,3.1,0,0,1,74.79,91a2.77,2.77,0,0,1-.7,1.29,2.82,2.82,0,0,1-1.31.76,2.65,2.65,0,0,1-2.24-.36,2.45,2.45,0,0,1-.77-.83l.74-.2a1.78,1.78,0,0,0,.91.67,1.94,1.94,0,0,0,1.17,0,2.12,2.12,0,0,0,1-.57,2,2,0,0,0,.52-1,2.32,2.32,0,0,0,0-1.14,2.25,2.25,0,0,0-.56-1,2,2,0,0,0-.93-.55,2.14,2.14,0,0,0-1.15,0,2,2,0,0,0-1,.62,1.79,1.79,0,0,0-.44,1l-.74.2a2.64,2.64,0,0,1,.24-1.11,2.81,2.81,0,0,1,3.26-1.46Z"/><path class="cls-1" d="M66.74,90.69l1-.14-.29-2.13.71-.09.76,5.54-.72.1L67,94.14A1.62,1.62,0,0,1,66.1,94a1.7,1.7,0,0,1-.7-.55,1.76,1.76,0,0,1-.35-.83,1.68,1.68,0,0,1,.19-1,1.64,1.64,0,0,1,.72-.73l-2.16-2,.87-.12Zm1.11.52-1.25.17a1,1,0,0,0-.47.21,1,1,0,0,0-.3.43,1.19,1.19,0,0,0-.06.53,1.1,1.1,0,0,0,.2.5,1,1,0,0,0,.41.33.84.84,0,0,0,.5.07l1.25-.17Z"/><path class="cls-1" d="M62.64,89.21a2.85,2.85,0,0,1,1,1.05,2.95,2.95,0,0,1-1,4,2.68,2.68,0,0,1-1.42.39,2.74,2.74,0,0,1-1.43-.38,3,3,0,0,1-1-1.05,2.92,2.92,0,0,1-.38-1.46,2.91,2.91,0,0,1,1.39-2.52,2.8,2.8,0,0,1,2.85,0Zm-2.49.64a2.16,2.16,0,0,0-.76.8,2.34,2.34,0,0,0,0,2.2,2.09,2.09,0,0,0,.77.79,2.06,2.06,0,0,0,1.07.28,2,2,0,0,0,1.06-.29,2.13,2.13,0,0,0,.76-.79,2.34,2.34,0,0,0,.27-1.11,2.28,2.28,0,0,0-.28-1.1,2.09,2.09,0,0,0-.77-.79,2.13,2.13,0,0,0-2.13,0Z"/><path class="cls-1" d="M54.54,89.16l.08-.7,3,.36L57,94.38l-.72-.09.57-4.86Z"/><path class="cls-1" d="M50.9,88.4l.15-.69,3,.63-1.16,5.48-.71-.15,1-4.79Z"/><path class="cls-1" d="M47.69,90.05l-.79-.26.27-.82.79.26Z"/><path class="cls-1" d="M44.13,85.54a2.75,2.75,0,0,1,.44,1.39,3,3,0,0,1-.33,1.48,2.94,2.94,0,0,1-1,1.14,2.75,2.75,0,0,1-2.86.18,2.64,2.64,0,0,1-.92-.73A2.58,2.58,0,0,1,39,86.84l.69.35a1.78,1.78,0,0,0,.22,1.1,1.91,1.91,0,0,0,.86.8,2.15,2.15,0,0,0,1.12.24,2,2,0,0,0,1-.37,2.38,2.38,0,0,0,1-2,1.94,1.94,0,0,0-.33-1,2,2,0,0,0-.86-.75,1.94,1.94,0,0,0-1.15-.2,1.74,1.74,0,0,0-1,.48l-.69-.35a2.52,2.52,0,0,1,.92-.66,2.71,2.71,0,0,1,1.13-.21,2.66,2.66,0,0,1,1.13.28A2.9,2.9,0,0,1,44.13,85.54Z"/><path class="cls-1" d="M37.47,83.91l.85.58,1.2-1.78.6.41L37,87.76l-.6-.41-1-.7a1.68,1.68,0,0,1-.57-.67,1.71,1.71,0,0,1-.16-.87,1.74,1.74,0,0,1,2.15-1.56l-.31-2.91.73.49ZM38,85.05l-1.05-.71a1,1,0,0,0-.48-.16,1.13,1.13,0,0,0-.51.12,1.16,1.16,0,0,0-.4.36,1.08,1.08,0,0,0-.1,1,.94.94,0,0,0,.32.39l1.05.71Z"/><path class="cls-1" d="M35.38,80.07a2.82,2.82,0,0,1,.06,1.47,2.9,2.9,0,0,1-.68,1.34,3,3,0,0,1-1.25.85,2.7,2.7,0,0,1-1.46.11,2.73,2.73,0,0,1-1.33-.65A2.69,2.69,0,0,1,29.91,82a2.92,2.92,0,0,1-.07-1.47,3,3,0,0,1,.69-1.34,2.86,2.86,0,0,1,1.25-.84,2.7,2.7,0,0,1,1.46-.11,2.8,2.8,0,0,1,2.14,1.88ZM33.1,78.89A2.07,2.07,0,0,0,32,79a2.26,2.26,0,0,0-.93.64,2.2,2.2,0,0,0-.53,1,2.07,2.07,0,0,0,.66,2,2.05,2.05,0,0,0,2.08.4,2.2,2.2,0,0,0,.94-.64,2.28,2.28,0,0,0,.52-1,2.11,2.11,0,0,0-.65-2A2.15,2.15,0,0,0,33.1,78.89Z"/><path class="cls-1" d="M29.4,74.66l.52-.47,2,2.3L27.76,80.2l-.48-.55L31,76.41Z"/><path class="cls-1" d="M27.2,71.66l.57-.41,1.8,2.47L25.05,77l-.43-.58,4-2.89Z"/><path class="cls-1" d="M23.7,70.73,23.29,70l.76-.42.4.72Z"/><circle class="cls-1" cx="60.4" cy="50.75" r="4.51"/></svg>